<?xml version="1.0" encoding="utf-8"?>
<svg width="40" height="40" viewBox="0 0 40 40" fill="none" xmlns="http://www.w3.org/2000/svg">
    <rect width="40" height="40" rx="20" fill="#0052FF"/>
    <path d="M20 6.25C12.4062 6.25 6.25 12.4062 6.25 20C6.25 27.5938 12.4062 33.75 20 33.75C27.5938 33.75 33.75 27.5938 33.75 20C33.75 12.4062 27.5938 6.25 20 6.25ZM25.9375 20.625H22.5V25.9375C22.5 26.2812 22.2188 26.5625 21.875 26.5625H18.125C17.7812 26.5625 17.5 26.2812 17.5 25.9375V20.625H14.0625C13.7188 20.625 13.4375 20.3438 13.4375 20V16.25C13.4375 15.9062 13.7188 15.625 14.0625 15.625H17.5V12.1875C17.5 11.8438 17.7812 11.5625 18.125 11.5625H21.875C22.2188 11.5625 22.5 11.8438 22.5 12.1875V15.625H25.9375C26.2812 15.625 26.5625 15.9062 26.5625 16.25V20C26.5625 20.3438 26.2812 20.625 25.9375 20.625Z" fill="white"/>
</svg> 