<?xml version="1.0" encoding="UTF-8"?>
<svg width="40" height="40" viewBox="0 0 40 40" fill="none" xmlns="http://www.w3.org/2000/svg">
    <rect width="40" height="40" rx="20" fill="#855DCD"/>
    <path d="M28.2 15.8C28.2 17.6 26.8 19 25 19C23.2 19 21.8 17.6 21.8 15.8C21.8 14 23.2 12.6 25 12.6C26.8 12.6 28.2 14 28.2 15.8Z" fill="white"/>
    <path d="M18.2 24.2C18.2 26 16.8 27.4 15 27.4C13.2 27.4 11.8 26 11.8 24.2C11.8 22.4 13.2 21 15 21C16.8 21 18.2 22.4 18.2 24.2Z" fill="white"/>
    <path d="M28.2 24.2C28.2 26 26.8 27.4 25 27.4C23.2 27.4 21.8 26 21.8 24.2C21.8 22.4 23.2 21 25 21C26.8 21 28.2 22.4 28.2 24.2Z" fill="white"/>
    <path d="M18.2 15.8C18.2 17.6 16.8 19 15 19C13.2 19 11.8 17.6 11.8 15.8C11.8 14 13.2 12.6 15 12.6C16.8 12.6 18.2 14 18.2 15.8Z" fill="white"/>
</svg> 