<?xml version="1.0" encoding="UTF-8"?>
<svg width="35" height="33" viewBox="0 0 35 33" fill="none" xmlns="http://www.w3.org/2000/svg">
<path d="M32.9582 1L19.8241 10.7183L22.2665 4.99099L32.9582 1Z" fill="#E17726" stroke="#E17726" stroke-width="0.25" stroke-linecap="round" stroke-linejoin="round"/>
<path d="M2.65601 1L15.6802 10.809L13.3498 4.99098L2.65601 1Z" fill="#E27625" stroke="#E27625" stroke-width="0.25" stroke-linecap="round" stroke-linejoin="round"/>
<path d="M28.2304 23.5334L24.7442 28.872L32.2451 30.9322L34.3631 23.6523L28.2304 23.5334Z" fill="#E27625" stroke="#E27625" stroke-width="0.25" stroke-linecap="round" stroke-linejoin="round"/>
<path d="M1.25684 23.6523L3.36277 30.9322L10.8558 28.872L7.37753 23.5334L1.25684 23.6523Z" fill="#E27625" stroke="#E27625" stroke-width="0.25" stroke-linecap="round" stroke-linejoin="round"/>
<path d="M10.4404 14.5149L8.39258 17.6507L15.8161 17.9919L15.5681 10.0186L10.4404 14.5149Z" fill="#E27625" stroke="#E27625" stroke-width="0.25" stroke-linecap="round" stroke-linejoin="round"/>
<path d="M25.1739 14.5151L19.9494 9.92798L19.8242 17.9921L27.2477 17.6509L25.1739 14.5151Z" fill="#E27625" stroke="#E27625" stroke-width="0.25" stroke-linecap="round" stroke-linejoin="round"/>
<path d="M10.8557 28.872L15.3177 26.7081L11.4795 23.7119L10.8557 28.872Z" fill="#E27625" stroke="#E27625" stroke-width="0.25" stroke-linecap="round" stroke-linejoin="round"/>
<path d="M20.2964 26.7081L24.7444 28.872L24.1206 23.7119L20.2964 26.7081Z" fill="#E27625" stroke="#E27625" stroke-width="0.25" stroke-linecap="round" stroke-linejoin="round"/>
<path d="M24.7444 28.8722L20.2964 26.7083L20.6533 29.5891L20.6172 30.8419L24.7444 28.8722Z" fill="#D5BFB2" stroke="#D5BFB2" stroke-width="0.25" stroke-linecap="round" stroke-linejoin="round"/>
<path d="M10.8557 28.8722L14.9829 30.8419L14.9588 29.5891L15.3177 26.7083L10.8557 28.8722Z" fill="#D5BFB2" stroke="#D5BFB2" stroke-width="0.25" stroke-linecap="round" stroke-linejoin="round"/>
<path d="M15.0697 21.7842L11.3843 20.6964L14.0195 19.4956L15.0697 21.7842Z" fill="#233447" stroke="#233447" stroke-width="0.25" stroke-linecap="round" stroke-linejoin="round"/>
<path d="M20.5447 21.7842L21.5949 19.4956L24.2421 20.6964L20.5447 21.7842Z" fill="#233447" stroke="#233447" stroke-width="0.25" stroke-linecap="round" stroke-linejoin="round"/>
<path d="M10.8557 28.872L11.503 23.5334L7.37744 23.6523L10.8557 28.872Z" fill="#CC6228" stroke="#CC6228" stroke-width="0.25" stroke-linecap="round" stroke-linejoin="round"/>
<path d="M24.1113 23.5334L24.7446 28.872L28.2308 23.6523L24.1113 23.5334Z" fill="#CC6228" stroke="#CC6228" stroke-width="0.25" stroke-linecap="round" stroke-linejoin="round"/>
<path d="M27.2477 17.6509L19.8242 17.9921L20.5447 21.7843L21.5949 19.4957L24.2421 20.6965L27.2477 17.6509Z" fill="#CC6228" stroke="#CC6228" stroke-width="0.25" stroke-linecap="round" stroke-linejoin="round"/>
<path d="M11.3845 20.6965L14.0197 19.4957L15.0699 21.7843L15.8164 17.9921L8.39282 17.6509L11.3845 20.6965Z" fill="#CC6228" stroke="#CC6228" stroke-width="0.25" stroke-linecap="round" stroke-linejoin="round"/>
<path d="M8.39282 17.6509L11.4797 23.7121L11.3845 20.6965L8.39282 17.6509Z" fill="#E27525" stroke="#E27525" stroke-width="0.25" stroke-linecap="round" stroke-linejoin="round"/>
<path d="M24.2421 20.6965L24.1208 23.7121L27.2477 17.6509L24.2421 20.6965Z" fill="#E27525" stroke="#E27525" stroke-width="0.25" stroke-linecap="round" stroke-linejoin="round"/>
<path d="M15.8162 17.9919L15.0698 21.7841L16.0238 26.2684L16.1731 20.3553L15.8162 17.9919Z" fill="#E27525" stroke="#E27525" stroke-width="0.25" stroke-linecap="round" stroke-linejoin="round"/>
<path d="M19.8242 17.9919L19.4792 20.3433L19.5925 26.2684L20.5465 21.7841L19.8242 17.9919Z" fill="#E27525" stroke="#E27525" stroke-width="0.25" stroke-linecap="round" stroke-linejoin="round"/>
<path d="M20.5448 21.7843L19.5908 26.2686L20.2967 26.7083L24.1209 23.7121L24.2422 20.6965L20.5448 21.7843Z" fill="#F5841F" stroke="#F5841F" stroke-width="0.25" stroke-linecap="round" stroke-linejoin="round"/>
<path d="M11.3843 20.6965L11.4795 23.7121L15.3177 26.7083L16.0236 26.2686L15.0696 21.7843L11.3843 20.6965Z" fill="#F5841F" stroke="#F5841F" stroke-width="0.25" stroke-linecap="round" stroke-linejoin="round"/>
<path d="M20.6172 30.8417L20.6533 29.5889L20.3204 29.3132H15.2938L14.9588 29.5889L14.9829 30.8417L10.8557 28.872L12.3307 30.0847L15.2457 32.0663H20.3445L23.2714 30.0847L24.7444 28.872L20.6172 30.8417Z" fill="#C0AC9D" stroke="#C0AC9D" stroke-width="0.25" stroke-linecap="round" stroke-linejoin="round"/>
<path d="M20.2967 26.7081L19.5908 26.2684H16.0238L15.3179 26.7081L14.959 29.5889L15.294 29.3132H20.3206L20.6535 29.5889L20.2967 26.7081Z" fill="#161616" stroke="#161616" stroke-width="0.25" stroke-linecap="round" stroke-linejoin="round"/>
<path d="M33.6322 11.3532L34.7546 6.01822L32.9582 1L20.2964 10.4065L25.1736 14.5151L32.0491 16.5088L33.5722 14.7483L32.8981 14.2606L33.9724 13.2732L33.1609 12.6457L34.2352 11.8289L33.6322 11.3532Z" fill="#763E1A" stroke="#763E1A" stroke-width="0.25" stroke-linecap="round" stroke-linejoin="round"/>
<path d="M1.25684 6.01822L2.39119 11.3532L1.7642 11.8289L2.85046 12.6457L2.03899 13.2732L3.11329 14.2606L2.43921 14.7483L3.96223 16.5088L10.8378 14.5151L15.7149 10.4065L3.05315 1L1.25684 6.01822Z" fill="#763E1A" stroke="#763E1A" stroke-width="0.25" stroke-linecap="round" stroke-linejoin="round"/>
<path d="M32.0493 16.509L25.1738 14.5153L27.2476 17.6511L24.1208 23.7123L28.2282 23.6523H34.3609L32.0493 16.509Z" fill="#F5841F" stroke="#F5841F" stroke-width="0.25" stroke-linecap="round" stroke-linejoin="round"/>
<path d="M10.8379 14.5153L3.96243 16.509L1.67285 23.6523H7.79354L11.8889 23.7123L8.77414 17.6511L10.8379 14.5153Z" fill="#F5841F" stroke="#F5841F" stroke-width="0.25" stroke-linecap="round" stroke-linejoin="round"/>
<path d="M19.8242 17.9919L20.2964 10.4065L22.2669 4.99097H13.3496L15.3201 10.4065L15.8163 17.9919L16.0117 20.3673L16.0237 26.2684H19.5907L19.6027 20.3673L19.8242 17.9919Z" fill="#F5841F" stroke="#F5841F" stroke-width="0.25" stroke-linecap="round" stroke-linejoin="round"/>
</svg> 